HIERARCHY
ROOT Hips
{
	OFFSET 0.000000 88.474243 0.000000
	CHANNELS 6 Xposition Yposition Zposition Zrotation Yrotation Xrotation 
	JOINT Hips_Spine
	{
		OFFSET 0.000000 0.000000 0.000000
		CHANNELS 3 Zrotation Yrotation Xrotation
		JOINT Spine
		{
			OFFSET 0.005100 8.711998 -0.691000
			CHANNELS 3 Zrotation Yrotation Xrotation
			JOINT Spine1
			{
				OFFSET -0.009200 8.660301 -1.275000
				CHANNELS 3 Zrotation Yrotation Xrotation
				JOINT Spine2
				{
					OFFSET 0.006300 9.852501 -1.857000
					CHANNELS 3 Zrotation Yrotation Xrotation
					JOINT Spine2_Neck
					{
						OFFSET 0.000000 0.000000 0.000000
						CHANNELS 3 Zrotation Yrotation Xrotation
						JOINT Neck
						{
							OFFSET 0.016300 11.420799 -0.263300
							CHANNELS 3 Zrotation Yrotation Xrotation
							End Site #name: Head
							{
								OFFSET -0.019200 9.262405 2.362500
							}
						}
					}
					JOINT Spine2_LeftShoulder
					{
						OFFSET 0.000000 0.000000 0.000000
						CHANNELS 3 Zrotation Yrotation Xrotation
						JOINT LeftShoulder
						{
							OFFSET 5.616900 6.732201 -0.345700
							CHANNELS 3 Zrotation Yrotation Xrotation
							JOINT LeftArm
							{
								OFFSET 10.664888 -0.183372 -2.440700
								CHANNELS 3 Zrotation Yrotation Xrotation
								JOINT LeftForeArm
								{
									OFFSET 27.459126 0.000000 0.000000
									CHANNELS 3 Zrotation Yrotation Xrotation
									End Site #name: LeftHand
									{
										OFFSET 21.306858 0.000000 0.000000
									}
								}
							}
						}
					}
					JOINT Spine2_RightShoulder
					{
						OFFSET 0.000000 0.000000 0.000000
						CHANNELS 3 Zrotation Yrotation Xrotation
						JOINT RightShoulder
						{
							OFFSET -5.580300 6.737503 -0.344400
							CHANNELS 3 Zrotation Yrotation Xrotation
							JOINT RightArm
							{
								OFFSET -10.679335 -0.188484 -2.383900
								CHANNELS 3 Zrotation Yrotation Xrotation
								JOINT RightForeArm
								{
									OFFSET -27.503529 0.000000 0.000000
									CHANNELS 3 Zrotation Yrotation Xrotation
									End Site #name: RightHand
									{
										OFFSET -21.306808 0.000000 0.000000
									}
								}
							}
						}
					}
				}
			}
		}
	}
	JOINT Hips_LeftUpLeg
	{
		OFFSET 0.000000 0.000000 0.000000
		CHANNELS 3 Zrotation Yrotation Xrotation
		JOINT LeftUpLeg
		{
			OFFSET 6.857700 -6.739601 0.312100
			CHANNELS 3 Zrotation Yrotation Xrotation
			JOINT LeftLeg
			{
				OFFSET -0.367590 -34.731552 -4.572400
				CHANNELS 3 Zrotation Yrotation Xrotation
				End Site #name: LeftFoot
				{
					OFFSET 0.367590 -34.656704 -6.067400
				}
			}
		}
	}
	JOINT Hips_RightUpLeg
	{
		OFFSET 0.000000 0.000000 0.000000
		CHANNELS 3 Zrotation Yrotation Xrotation
		JOINT RightUpLeg
		{
			OFFSET -6.876100 -6.733299 0.301000
			CHANNELS 3 Zrotation Yrotation Xrotation
			JOINT RightLeg
			{
				OFFSET 0.347353 -34.795158 -4.515900
				CHANNELS 3 Zrotation Yrotation Xrotation
				End Site #name: RightFoot
				{
					OFFSET -0.347353 -34.589367 -6.070300
				}
			}
		}
	}
}
MOTION
Frames: 15
Frame Time: 0.041667
0.026724 0.006838 -0.060707 -6.097430 0.635457 -9.039761 0.000000 0.000000 0.000000 0.821526 0.654583 17.167349 1.298944 0.165296 3.522353 0.000000 0.000000 0.000000 1.574123 0.205823 3.530225 0.458116 -0.682222 7.407200 0.930801 0.171223 3.722880 -9.515370 -7.771908 1.887491 -57.603391 -13.348723 13.576429 0.793952 -54.874441 -0.253751 1.614377 -0.024730 4.220578 11.181503 -5.236639 -0.195707 72.251729 17.554628 33.725986 -0.155085 40.942451 0.463167 0.000000 0.000000 0.000000 7.058202 4.940475 -82.572962 -1.053460 -3.024956 82.318891 -0.000000 0.000000 0.000000 0.708112 -10.939840 -72.592990 0.399891 -1.796275 80.920567 
0.043146 0.022332 -0.115275 -7.121481 0.678344 -7.848744 0.000000 0.000000 0.000000 2.905477 0.553737 15.545394 1.031248 0.102234 4.177857 0.000000 0.000000 0.000000 1.112573 0.249217 3.952476 0.176375 -1.847065 7.510495 1.173488 0.287755 4.463072 -6.484954 -6.423074 1.049475 -58.793920 -17.030003 6.208690 -0.172882 -54.455546 1.029286 1.054876 0.061118 4.098411 9.180216 -2.839943 0.135127 72.554965 24.953824 23.339135 -0.175243 47.049201 0.372854 0.000000 0.000000 -0.000000 7.035670 5.188112 -84.372340 -1.460757 -3.480577 81.988814 -0.000000 -0.000000 0.000000 2.859754 -12.196941 -75.782274 2.409178 -1.834852 81.015150 
0.045735 0.019418 -0.172104 -7.610478 1.809864 -7.752858 0.000000 0.000000 0.000000 3.639496 0.327160 15.834137 1.062063 0.163176 4.416475 0.000000 0.000000 0.000000 1.257995 0.169696 4.246684 0.990722 -1.806271 7.952076 1.202793 0.211196 4.628157 -6.845546 -6.408688 0.923710 -58.532790 -16.209399 6.911972 0.077761 -55.320072 0.598057 1.148344 0.165696 4.340828 7.814533 -1.128821 0.286467 70.523606 29.104140 24.698888 -0.346983 56.962553 -0.148638 0.000000 0.000000 0.000000 7.447420 4.018915 -84.518539 -1.758064 -3.255308 81.517056 -0.000000 -0.000000 0.000000 2.807423 -12.482122 -77.022231 2.636878 -2.550121 82.591983 
0.045113 0.013333 -0.228168 -7.849662 2.200605 -7.832193 0.000000 0.000000 0.000000 3.917366 0.437942 15.732094 1.053805 0.144944 5.007825 0.000000 0.000000 0.000000 1.350123 0.179284 4.443738 0.967563 -1.850566 8.531625 1.237432 0.152644 4.881019 -7.099708 -6.809056 1.080263 -58.944735 -16.297541 5.043963 0.131328 -54.042915 0.418527 1.234846 0.142600 4.646800 7.143368 -0.071399 0.371964 71.731095 32.516013 26.153492 -0.526298 62.794310 -0.421431 -0.000000 0.000000 0.000000 7.359069 3.890202 -84.268426 -1.923322 -2.819661 81.730526 -0.000000 -0.000000 0.000000 2.991047 -12.684987 -77.377137 2.796298 -2.850484 83.665090 
0.050893 0.009912 -0.280626 -8.009612 2.437083 -7.958334 0.000000 0.000000 0.000000 4.033571 0.422915 16.220785 1.069367 0.079407 5.429800 0.000000 0.000000 0.000000 1.393860 0.169775 4.718359 0.987767 -1.876335 8.958255 1.278964 0.092735 5.064819 -7.096856 -7.118717 1.181949 -59.066904 -17.031800 3.269986 0.161744 -51.815480 0.368075 1.276428 0.116227 5.011101 6.930368 0.468705 0.335537 72.784507 34.490597 27.427749 -0.697757 65.819584 -0.618060 -0.000000 0.000000 -0.000000 7.358736 3.780727 -84.216585 -2.069922 -2.452210 81.999170 -0.000000 0.000000 0.000000 3.039678 -12.697010 -77.345212 2.978825 -2.977566 83.970399 
0.061573 0.008633 -0.330931 -8.092165 2.467069 -8.068377 0.000000 0.000000 0.000000 4.107232 0.345926 16.796370 1.085405 0.043374 5.595232 0.000000 0.000000 0.000000 1.419871 0.147275 4.918176 0.960439 -1.925496 9.051686 1.304357 0.052639 5.188717 -6.984172 -7.272230 1.196094 -59.442711 -17.655633 2.575851 0.176468 -50.530226 0.340181 1.290579 0.098284 5.194672 6.912188 0.639904 0.334189 73.261151 35.484045 27.944704 -0.800718 67.116116 -0.732939 -0.000000 0.000000 -0.000000 7.466086 3.822419 -84.169134 -2.216321 -2.348264 82.178710 -0.000000 0.000000 0.000000 2.988527 -12.638689 -77.280446 3.069267 -3.008960 84.070313 
0.074533 0.009648 -0.379283 -8.118747 2.468174 -8.133849 -0.000000 0.000000 0.000000 4.155354 0.266144 17.166340 1.099233 0.020788 5.643032 0.000000 0.000000 0.000000 1.436494 0.138481 5.021469 0.906216 -1.955893 9.058480 1.315261 0.042266 5.221268 -6.941895 -7.287274 1.167737 -59.596734 -18.006241 2.456642 0.171805 -51.222762 0.360128 1.305523 0.094349 5.278768 6.984013 0.583772 0.434848 73.505810 36.095369 28.200200 -0.833218 67.227242 -0.753591 -0.000000 0.000000 -0.000000 7.531876 3.873563 -84.145129 -2.273030 -2.355279 82.242177 -0.000000 0.000000 -0.000000 2.951404 -12.612162 -77.240895 3.083161 -2.988967 84.088860 
0.086167 0.011673 -0.426006 -8.126001 2.478528 -8.155248 -0.000000 0.000000 0.000000 4.165056 0.237472 17.296644 1.099794 0.008797 5.640157 0.000000 0.000000 0.000000 1.444741 0.139966 5.080704 0.791507 -1.963383 9.173727 1.323788 0.053022 5.254723 -6.934205 -7.271613 1.152373 -59.450916 -18.196984 2.444920 0.165824 -52.542958 0.379244 1.312618 0.105921 5.318421 7.064626 0.528797 0.451274 73.622570 36.345172 28.219919 -0.823381 67.097296 -0.731420 -0.000000 0.000000 -0.000000 7.551312 3.862584 -84.175596 -2.276175 -2.369523 82.285233 -0.000000 0.000000 -0.000000 2.901722 -12.577020 -77.203043 3.067032 -2.957936 84.062550 
0.092336 0.014250 -0.471563 -8.124216 2.491327 -8.147691 -0.000000 0.000000 0.000000 4.133851 0.233944 17.281286 1.100035 0.013456 5.650462 0.000000 0.000000 0.000000 1.447448 0.148144 5.134415 0.680976 -1.990481 9.283396 1.319104 0.071633 5.284983 -6.932044 -7.257278 1.151258 -59.230391 -18.055313 2.350394 0.154513 -53.945147 0.401436 1.308942 0.117842 5.347884 7.105337 0.511166 0.450578 73.695789 36.371670 28.108723 -0.815401 67.110802 -0.705676 -0.000000 0.000000 -0.000000 7.548814 3.858802 -84.208138 -2.273321 -2.395039 82.307328 -0.000000 0.000000 -0.000000 2.872377 -12.549740 -77.181259 3.055953 -2.936253 84.018388 
0.093999 0.017160 -0.516187 -8.119306 2.506600 -8.128480 0.000000 0.000000 0.000000 4.111218 0.243620 17.251577 1.099603 0.026783 5.676452 0.000000 0.000000 0.000000 1.443706 0.159755 5.167120 0.592132 -2.018164 9.343512 1.311108 0.087290 5.309719 -6.944822 -7.224509 1.143840 -59.004628 -17.876921 2.280634 0.135911 -55.317173 0.433557 1.301710 0.125779 5.367906 7.097202 0.514203 0.442082 73.787876 36.276408 27.900062 -0.817495 67.462592 -0.689428 -0.000000 0.000000 -0.000000 7.535166 3.858262 -84.226496 -2.279262 -2.423050 82.301973 -0.000000 0.000000 -0.000000 2.860035 -12.533999 -77.183498 3.044761 -2.924429 83.987377 
0.091821 0.020491 -0.560075 -8.111803 2.523271 -8.110248 0.000000 0.000000 0.000000 4.104628 0.235561 17.211795 1.094771 0.040390 5.699556 0.000000 0.000000 0.000000 1.437137 0.169212 5.186942 0.534328 -2.035330 9.389448 1.301485 0.097395 5.328859 -6.969413 -7.160410 1.133755 -58.908181 -17.713088 2.302819 0.113648 -56.447343 0.463754 1.290327 0.133448 5.386289 7.058472 0.539194 0.416637 73.886322 36.142272 27.613321 -0.834774 68.218783 -0.687579 -0.000000 0.000000 -0.000000 7.523943 3.858348 -84.243434 -2.289218 -2.447621 82.297194 -0.000000 0.000000 -0.000000 2.857351 -12.524415 -77.189508 3.037788 -2.917522 83.973466 
0.086463 0.024285 -0.603527 -8.102646 2.537086 -8.094026 0.000000 0.000000 0.000000 4.106460 0.223882 17.188037 1.089320 0.051702 5.719780 0.000000 0.000000 0.000000 1.430285 0.177191 5.200328 0.499287 -2.048114 9.409569 1.291535 0.104015 5.338573 -6.990136 -7.072898 1.119370 -58.892620 -17.600903 2.404624 0.093731 -57.266055 0.494665 1.280233 0.138539 5.402418 7.008123 0.576605 0.370327 73.990054 35.968620 27.266925 -0.865674 69.382365 -0.696304 -0.000000 0.000000 0.000000 7.515400 3.860019 -84.259478 -2.298362 -2.466292 82.290595 -0.000000 0.000000 -0.000000 2.859602 -12.519404 -77.198549 3.033473 -2.917087 83.970206 
0.078601 0.028508 -0.646743 -8.090291 2.547254 -8.082905 0.000000 0.000000 0.000000 4.117109 0.208861 17.184401 1.082019 0.058990 5.731353 0.000000 0.000000 0.000000 1.422308 0.183099 5.204310 0.479659 -2.058535 9.429631 1.280977 0.105873 5.333908 -7.009347 -6.979022 1.102649 -58.974933 -17.523765 2.578500 0.087037 -57.737455 0.508949 1.272179 0.141475 5.413107 6.969506 0.592392 0.334316 74.173115 35.802951 26.879271 -0.897885 70.913593 -0.710555 -0.000000 0.000000 0.000000 7.506532 3.864243 -84.278371 -2.305421 -2.481523 82.288477 -0.000000 0.000000 -0.000000 2.867129 -12.520006 -77.211951 3.030658 -2.916613 83.971522 
0.068737 0.033163 -0.689857 -8.079516 2.556832 -8.077217 0.000000 0.000000 0.000000 4.126911 0.196854 17.196704 1.072058 0.065070 5.732332 0.000000 0.000000 0.000000 1.414447 0.187370 5.197536 0.464420 -2.069806 9.452067 1.271686 0.106672 5.323329 -7.021104 -6.867238 1.085645 -59.089549 -17.445976 2.796020 0.081992 -58.114359 0.520034 1.263475 0.144756 5.417762 6.926914 0.583642 0.328068 74.358392 35.654147 26.442239 -0.969807 72.894106 -0.771207 -0.000000 0.000000 0.000000 7.500111 3.866486 -84.291580 -2.308744 -2.493187 82.290863 -0.000000 0.000000 -0.000000 2.871282 -12.519176 -77.225775 3.032084 -2.919078 83.984499 
0.057412 0.038250 -0.733017 -8.066948 2.565278 -8.078282 0.000000 0.000000 0.000000 4.134325 0.183878 17.218296 1.061359 0.069365 5.726246 0.000000 0.000000 0.000000 1.406060 0.190018 5.184865 0.445780 -2.085191 9.485469 1.263563 0.106379 5.309078 -7.029886 -6.737147 1.064126 -59.197289 -17.336263 3.015958 0.078709 -58.472450 0.530218 1.253668 0.147743 5.417572 6.833151 0.563043 0.327471 74.431202 35.477495 25.902060 -1.070102 74.901554 -0.861864 -0.000000 0.000000 0.000000 7.495427 3.866360 -84.295135 -2.310947 -2.505827 82.286778 -0.000000 0.000000 0.000000 2.876229 -12.520326 -77.231978 3.034484 -2.921177 83.993274 
